<svg id="Capa_1" data-name="Capa 1" xmlns="http://www.w3.org/2000/svg" viewBox="0 0 252 366.63"><defs><style>.cls-1{fill:#fff;}</style></defs><path d="M397.6,599.74a249.17,249.17,0,0,0,11.58,28,172.2,172.2,0,0,0,15.33,26.53c.49-1.83.9-3,1.12-4.21.49-2.64.94-5.29,1.29-8a2.67,2.67,0,0,1,1.49-2.4,29.17,29.17,0,0,1,7.16-2.82c.91-.24,1.76-.73,2.67-1,2.84-.73,5.7-1.41,8.56-2.08,1.23-.3,2-1.26,2.09-3.07a15.88,15.88,0,0,1,1.43-5.38c6.7,1.23,13.32.95,19.92.39,3.93-.34,7.83-1.18,11.72-1.88,1.66-.3,2.5.45,3.11,1.84.44,1,1.07,2,1.5,3a3,3,0,0,0,2.79,1.87c1.27.09,2.55.19,3.83.21,6.27.14,12.32,1.67,18.28,3.36a61.57,61.57,0,0,1,16.66,7.62c1.15.75,2.26,1.54,3.69,2.51.09-1,.17-1.62.2-2.22.33-5.9.67-11.79,1-17.69a2.5,2.5,0,0,1,1.26-2.34,67.29,67.29,0,0,0,19.3-17.73,72.35,72.35,0,0,0,8.67-16,92.63,92.63,0,0,0,3.06-9.48c.8-3,1.12-6.09,1.88-9,1.45-5.59.87-11.27,1.27-16.89.33-4.68-.23-9.42-.54-14.13a15.66,15.66,0,0,0-1.16-3.49c-3.05,1.37-5.92,2.65-8.78,4a1.79,1.79,0,0,0-1.08,1.95c.16,1.75.14,3.52.43,5.25a34.75,34.75,0,0,1-.06,12.86c-.47,2.32-.71,4.7-1.26,7A25.07,25.07,0,0,1,551.6,575a30.76,30.76,0,0,1-15,11.17,35.69,35.69,0,0,1-8.78,2.05,51.42,51.42,0,0,1-8.09.66c-4-.22-7.9-.9-11.85-1.43s-7.67-1.94-11.42-3.23a60.57,60.57,0,0,1-26.29-17.36,57.68,57.68,0,0,1-9.39-15.23,88.94,88.94,0,0,1-3.56-11,55.52,55.52,0,0,1-1.15-7.4c-3.55-.68-6.67,1.22-10.47.68l1,3.52a9.45,9.45,0,0,1,.37,1.36,70,70,0,0,1-.08,14.11,21.33,21.33,0,0,1-1.13,4.8,76.25,76.25,0,0,1-5,12.8c-4.32,8.25-9.76,15.42-18.19,20a61.73,61.73,0,0,1-11.46,4.69,27.61,27.61,0,0,1-12.8.66c-3.65-.62-7.49-.79-11-2.64a32.88,32.88,0,0,1-8.65-6.38,59.93,59.93,0,0,1-11.78-18.25c-1.5-3.55-2.76-7.2-4.05-10.83-.68-1.89-1.43-2.49-3.46-2.61-.92-.05-2.1,0-2.67-.55a9.9,9.9,0,0,1-2.59-3.62c-.87-2.33,1.77-5.75,4.31-5.93.46,0,.93-.1,1.58-.18,0-1.55,0-3,0-4.53.06-6.63,3.47-11.17,9.13-14.12A39.51,39.51,0,0,1,380,522.71c3.5-.68,7-.39,10.43-.93,4.52-.72,9.11-.43,13.59-1.08,3.35-.48,6.74-.19,10-.83,4.91-1,9.84-.68,14.76-1q5.61-.42,11.21-1c4.68-.46,9.35-1,14-1.47.71-.07,1.43-.13,2.15-.18,6.13-.43,12.26-.79,18.38-1.29s12.1-1.12,18.14-1.69l.48-.06c6.45-.43,12.92-.79,19.37-1.32,5.56-.47,11.11-1.18,16.67-1.68a3.92,3.92,0,0,0,2.8-1.5c.7-.8,1.52-1.5,2.49-2.44.62,1.57,1.17,2.86,1.62,4.17a4,4,0,0,0,2.22,2.39c7.68,3.38,12.54,9.35,15.71,16.9a6.72,6.72,0,0,0,1.06,1.38c2.92-2.22,5.72-4.28,8.42-6.46a2.56,2.56,0,0,0,.61-1.94c-.34-5.18-.52-10.39-1.26-15.52a138.73,138.73,0,0,0-3.13-14.92,53.29,53.29,0,0,0-8-17.75,17.52,17.52,0,0,0-6-5.29c-1.6-.86-1.83-1.14-1.56-2.71,1.35-7.79.76-15.63.51-23.44a49,49,0,0,0-1.83-10.78,31.16,31.16,0,0,0-5.43-11.72,11.4,11.4,0,0,0-7.75-4.67,28.69,28.69,0,0,1-3.21-.85c-2.77-.63-5.55-1.22-8.32-1.82a3.6,3.6,0,0,0-.71-.11c-4.93-.15-9.76-1.43-14.74-1.23-5.19.21-10.44-.22-15.58.36-3.17.35-6.44.45-9.58,1.49-1.84.61-3.87.69-5.8,1.21a107.31,107.31,0,0,0-13.56,4.53,88.3,88.3,0,0,0-16.93,9.32c-.91.63-1.81,1.29-2.86,2-1.14-1-2.33-2-3.45-3.11a42.21,42.21,0,0,0-14.41-9.3,25.44,25.44,0,0,0-13.82-1.62,27.2,27.2,0,0,0-9.3,3.51,20.74,20.74,0,0,0-4.79,4.79A64.08,64.08,0,0,0,384.6,437c-1.81,3.62-3.33,7.34-4.79,11.12-1.76,4.56-2,9.43-3.63,14a1.54,1.54,0,0,0-.05.48c0,6.54-1.6,13-1,19.58.08.86.34,1.71.43,2.58a17.67,17.67,0,0,1,0,5c-.13-.15-.35-.27-.38-.44-1.71-9-1.4-18.11-1-27.19.16-3.46,1.05-6.88,1.6-10.32.08-.47.07-1,.17-1.43.51-2.39,1-4.78,1.58-7.17.42-1.76.81-3.54,1.35-5.27,1.13-3.63,2.24-7.27,3.57-10.83s2.92-7.3,4.53-10.89a153.43,153.43,0,0,1,10.29-19.11,70.12,70.12,0,0,1,6.69-9.37,99.18,99.18,0,0,1,26.69-21.06,109.62,109.62,0,0,1,14.61-6.3,42.78,42.78,0,0,1,5.56-1.29c2-.44,4-.94,6.05-1.29a93.32,93.32,0,0,1,24.87-.57c3.07.29,6.1,1.1,9.14,1.69,1.79.35,3.6.67,5.36,1.14a144.19,144.19,0,0,1,14.13,4.53,134.91,134.91,0,0,1,16.28,7.64c5.18,2.82,10.07,6.19,15.13,9.24,6.71,4,10.64,10.42,14.28,17a134.5,134.5,0,0,1,7.9,18q2.06,5.52,3.94,11.12c.75,2.25,1.34,4.55,2,6.83.83,3.06,1.64,6.11,2.4,9.18,1,4.24,2,8.5,3,12.74.84,3.46,1.75,6.91,2.57,10.38.42,1.77.73,3.57,1,5.36.41,2.43.7,4.88,1.15,7.3s1.07,4.92,1.55,7.39c.38,2,.67,3.93,1,5.89q.74,4.71,1.43,9.42c.45,3,.8,6,1.34,9,.39,2.22.76,2.27,2.91,1.24,2.34-1.11,4.58-2.35,7.29-2.69,5.14-.63,8,2.25,9.4,6.63a31.37,31.37,0,0,1,.91,11.6c-.21,3.31-1,6.59-1.49,9.88-.06.39-.21.77-.24,1.16-.38,4.44-1.69,8.68-2.86,12.94-1.09,4-2.14,8-3.23,11.92a62.31,62.31,0,0,1-8.17,18.79,26.61,26.61,0,0,1-10.36,9.16,30,30,0,0,1-4.3,1.37c-.08.11-.26.25-.25.36.39,4.27-.43,8.45-1.07,12.61-.61,3.91-1.72,7.74-2.69,11.59-.62,2.44-1.32,4.87-2.13,7.26-1.34,4-2.67,8.07-4.25,12-1.73,4.34-3.72,8.58-5.65,12.84-1.68,3.72-3.39,7.43-5.19,11.1q-6.81,14-14.76,27.28c-2.07,3.47-3.92,7.08-6.16,10.43a53.73,53.73,0,0,1-20.18,18.52,74.71,74.71,0,0,1-10.09,4.08c-4.38,1.5-8.87,1.58-13.37,2-4,.36-7.92-.28-11.87-.44-3.49-.14-6.7-1.66-9.74-3.41-8.4-4.85-15.05-11.58-21.17-19-4.37-5.31-8.37-10.87-12.18-16.54s-7.11-11.43-10.4-17.3-6.27-11.66-9.21-17.59c-3.25-6.56-6.36-13.2-9.4-19.87a109.14,109.14,0,0,1-4.33-10.72c-1-2.91-1.47-6-2.19-9-.55-2.3-1.17-4.58-1.67-6.89a16.7,16.7,0,0,1-.18-2.65Zm86.47,104.91c5.1-.59,10.52-1.18,15.76-3.51a42.78,42.78,0,0,0,16-12.62c5.84-7.2,9.41-15.61,12-24.46.69-2.35.73-4.38-1.82-5.66a5.81,5.81,0,0,1-.92-.75A47.64,47.64,0,0,0,511,650.13c-2.73-1-5.65-1.45-8.44-2.31a44.54,44.54,0,0,0-10.33-1.72c-4.63-.3-9.28-.14-13.91-.22a13.38,13.38,0,0,0-6.54,1.84c-1.57.82-3.24,1.86-5.18,1.08-1-.41-2-1-3-1.34-1.65-.51-3.42-1.38-5-1.16a33.18,33.18,0,0,0-10,3,29.51,29.51,0,0,0-12.51,10.86c-1.94,3.11-3.34,6.27-.24,9.52.05,0,.05.15.08.22A79,79,0,0,0,449,687.68,60.08,60.08,0,0,0,466,700.29,49.11,49.11,0,0,0,484.07,704.65Z" transform="translate(-354 -356.68)"/><path class="cls-1" d="M484.07,704.65a49.11,49.11,0,0,1-18.1-4.36A60.08,60.08,0,0,1,449,687.68a79,79,0,0,1-13.12-17.83c0-.07,0-.17-.08-.22-3.1-3.25-1.7-6.41.24-9.52a29.51,29.51,0,0,1,12.51-10.86,33.18,33.18,0,0,1,10-3c1.59-.22,3.36.65,5,1.16,1.05.33,2,.93,3,1.34,1.94.78,3.61-.26,5.18-1.08a13.38,13.38,0,0,1,6.54-1.84c4.63.08,9.28-.08,13.91.22a44.54,44.54,0,0,1,10.33,1.72c2.79.86,5.71,1.31,8.44,2.31a47.64,47.64,0,0,1,14.07,7.52,5.81,5.81,0,0,0,.92.75c2.55,1.28,2.51,3.31,1.82,5.66-2.59,8.85-6.16,17.26-12,24.46a42.78,42.78,0,0,1-16,12.62C494.59,703.47,489.17,704.06,484.07,704.65Z" transform="translate(-354 -356.68)"/><path class="cls-1" d="M578.35,582.05c1.34-.22,2.64-.8,3.52.6a2.32,2.32,0,0,1-3.28,3.22C577.69,585.3,577.59,584.13,578.35,582.05Z" transform="translate(-354 -356.68)"/><circle class="cls-1" cx="226" cy="227.32" r="3"/></svg>